<svg xmlns="http://www.w3.org/2000/svg" width="1280" height="640" viewBox="0 0 1280 640" role="img" aria-labelledby="title description">
<title id="title">Tech Community · 技术交流社区 · 后端服务 / BACKEND</title>
<desc id="description">Architecture illustration: client, Go and Gin service, MySQL, MinIO and Judge0.</desc>
<defs><linearGradient id="bg" x2="1" y2="1"><stop stop-color="#102039"/><stop offset="1" stop-color="#080F20"/></linearGradient></defs>
<style>text{font-family:'Microsoft YaHei','Noto Sans CJK SC','Segoe UI',sans-serif}</style>
<rect width="1280" height="640" fill="url(#bg)"/>
<circle cx="1240" cy="40" r="330" fill="none" stroke="#4DDBEC" stroke-opacity=".045" stroke-width="70"/>
<circle cx="1240" cy="40" r="200" fill="none" stroke="#4DDBEC" stroke-opacity=".045" stroke-width="1"/>
<rect x="64" y="45" width="7" height="22" rx="3" fill="#4DDBEC"/>
<text x="84" y="62" font-size="16" fill="#C6D2E6" font-weight="500" >qihai-coding / tech-community-api</text>
<text x="64" y="123" font-size="15" fill="#4DDBEC" font-weight="600" letter-spacing="1.4">后端服务 / BACKEND</text>
<text x="62" y="219" font-size="49" fill="#F3F7FF" font-weight="700" >TECH COMMUNITY</text>
<text x="65" y="276" font-size="36" fill="#F3F7FF" font-weight="600" >技术交流社区</text>
<text x="65" y="325" font-size="21" fill="#C0CCE0" font-weight="400" >连接内容、身份与实时服务</text>
<text x="65" y="355" font-size="16" fill="#9DAEC7" font-weight="400" >Content, identity and realtime services.</text>
<rect x="64" y="399" width="79" height="34" rx="8" fill="#13263A" stroke="#2A4054"/><text x="78" y="422" font-size="14" fill="#4DDBEC" font-weight="500" >Go</text><rect x="155" y="399" width="82" height="34" rx="8" fill="#13263A" stroke="#2A4054"/><text x="169" y="422" font-size="14" fill="#4DDBEC" font-weight="500" >Gin</text><rect x="249" y="399" width="124" height="34" rx="8" fill="#13263A" stroke="#2A4054"/><text x="263" y="422" font-size="14" fill="#4DDBEC" font-weight="500" >WebSocket</text>
<text x="65" y="517" font-size="18" fill="#4DDBEC" font-weight="500" >认证 · 内容 · 通信 · 存储</text>
<path d="M604 151L604 540" fill="none" stroke="#2B3A51" stroke-width="1"/>
<path d="M64 571L1216 571" fill="none" stroke="#26364F" stroke-width="1"/>
<text x="64" y="606" font-size="12" fill="#8194B0" font-weight="500" letter-spacing="1">COMMUNITY PLATFORM / 社区平台</text>
<text x="1216" y="606" font-size="12" fill="#8194B0" font-weight="400" text-anchor="end">架构示意 / ARCHITECTURE</text><text x="666" y="133" font-size="13" fill="#8FA5C2" font-weight="500" letter-spacing="1">SERVICE MAP / 服务架构</text><rect x="666" y="160" width="520" height="73" rx="16" fill="#122039" stroke="#293B55"/><text x="926" y="190" font-size="21" fill="#E8F0FF" font-weight="600" text-anchor="middle">社区前端 / 接口客户端</text><text x="926" y="215" font-size="13" fill="#9DAEC7" font-weight="400" text-anchor="middle">Frontend / API clients</text><path d="M926 233L926 282" fill="none" stroke="#4DDBEC" stroke-width="2"/><text x="938" y="263" font-size="12" fill="#9DAEC7" font-weight="400" >HTTP / WebSocket</text><rect x="666" y="282" width="520" height="101" rx="16" fill="#113043" stroke="#35788C"/><text x="926" y="323" font-size="29" fill="#ECFCFF" font-weight="650" text-anchor="middle">Go + Gin</text><text x="926" y="356" font-size="17" fill="#4DDBEC" font-weight="500" text-anchor="middle">认证 · 路由 · 业务服务</text><path d="M926 383L926 415" fill="none" stroke="#4DDBEC" stroke-width="2"/><path d="M746 415L1106 415" fill="none" stroke="#4DDBEC" stroke-width="2"/><path d="M746 415L746 453" fill="none" stroke="#4DDBEC" stroke-width="2"/><rect x="666" y="453" width="160" height="84" rx="16" fill="#122039" stroke="#293B55"/><text x="746" y="487" font-size="22" fill="#E8F0FF" font-weight="600" text-anchor="middle">MySQL</text><text x="746" y="516" font-size="14" fill="#9DAEC7" font-weight="400" text-anchor="middle">关系型数据库</text><path d="M926 415L926 453" fill="none" stroke="#4DDBEC" stroke-width="2"/><rect x="846" y="453" width="160" height="84" rx="16" fill="#122039" stroke="#293B55"/><text x="926" y="487" font-size="22" fill="#E8F0FF" font-weight="600" text-anchor="middle">MinIO</text><text x="926" y="516" font-size="14" fill="#9DAEC7" font-weight="400" text-anchor="middle">对象存储</text><path d="M1106 415L1106 453" fill="none" stroke="#4DDBEC" stroke-width="2"/><rect x="1026" y="453" width="160" height="84" rx="16" fill="#122039" stroke="#293B55"/><text x="1106" y="487" font-size="22" fill="#E8F0FF" font-weight="600" text-anchor="middle">Judge0</text><text x="1106" y="516" font-size="14" fill="#9DAEC7" font-weight="400" text-anchor="middle">代码执行</text>
</svg>
